Coordinates
version=1
nRows=14
nColumns=24
inDegrees=yes

Units are S.I. units (second, meters, Newtons, ...)
Angles are in degrees.

endheader
time	pelvis_tilt	pelvis_list	pelvis_rotation	pelvis_tx	pelvis_ty	pelvis_tz	hip_flexion_r	hip_adduction_r	hip_rotation_r	knee_angle_r	ankle_angle_r	subtalar_angle_r	mtp_angle_r	hip_flexion_l	hip_adduction_l	hip_rotation_l	knee_angle_l	ankle_angle_l	subtalar_angle_l	mtp_angle_l	lumbar_extension	lumbar_bending	lumbar_rotation
      0.60000000	     22.93562555	      0.41727537	      5.50843204	     -0.55926313	      0.83625900	      0.02782162	    -41.17867145	      6.88639415	    -20.06341614	     -1.73069044	     33.03041690	     20.14197616	     29.40742799	     -4.33571419	      2.40795440	    -15.08849895	     -1.79341937	     16.46387913	     14.37475050	     48.82446673	    -36.78406761	      1.48023093	     -9.16084083
      0.60500000	     23.00181361	      0.32440120	      5.38240740	     -0.55381772	      0.83588985	      0.02762849	    -41.40640483	      6.78687089	    -19.87993502	     -2.35767357	     33.11096202	     20.20410539	     29.47496827	     -4.39109490	      2.36333643	    -15.06526327	     -2.40600937	     16.06807887	     14.19939026	     48.81297087	    -36.81445884	      1.47408799	     -9.07132798
      0.61000000	     23.06226094	      0.23472308	      5.26268253	     -0.54839691	      0.83556666	      0.02741437	    -41.58748970	      6.67151116	    -19.69051288	     -3.07627946	     33.22611465	     20.31641474	     29.67004955	     -4.43539513	      2.31569662	    -14.95177054	     -3.07590010	     15.59222202	     13.80056809	     48.85556479	    -36.84964640	      1.46746056	     -9.03897084
      0.61500000	     23.11566184	      0.16585758	      5.19588505	     -0.54299364	      0.83529419	      0.02711693	    -41.73615620	      6.56663753	    -19.59648804	     -3.84299794	     33.26202626	     20.40828487	     30.14941172	     -4.45595803	      2.27901392	    -14.65378396	     -3.81868669	     14.99292840	     13.11722266	     49.08015716	    -36.87966732	      1.46717244	     -9.00834878
      0.62000000	     23.17445313	      0.10979648	      5.09310834	     -0.53754359	      0.83513170	      0.02686503	    -41.84161156	      6.41489706	    -19.47504284	     -4.73204789	     33.18755767	     20.38528829	     31.03018522	     -4.48803608	      2.24883664	    -14.42209609	     -4.59604439	     14.38124952	     12.40202979	     49.66308038	    -36.91718973	      1.43298664	     -8.98466352
      0.62500000	     23.23040861	      0.04724337	      4.99001794	     -0.53211185	      0.83503894	      0.02665483	    -41.90938800	      6.26249210	    -19.31544572	     -5.69160719	     33.17545177	     20.38340903	     31.69621718	     -4.48019846	      2.18623689	    -14.19760977	     -5.49021830	     13.77229960	     11.75933469	     50.09235853	    -36.95597114	      1.39657847	     -8.93874054
      0.63000000	     23.31806096	     -0.00483047	      4.82446951	     -0.52665094	      0.83507432	      0.02654909	    -41.96926203	      6.05349269	    -19.07966465	     -6.75479816	     33.24045695	     20.37282620	     31.93666387	     -4.50337702	      2.11537081	    -14.11341627	     -6.44722036	     13.23390861	     11.32646962	     50.16201046	    -37.03311747	      1.31260082	     -8.86650318
      0.63500000	     23.32831362	     -0.05954080	      4.81234533	     -0.52128943	      0.83507048	      0.02615525	    -41.89194784	      5.92281647	    -19.03278739	     -7.91429792	     33.17197137	     20.37654801	     32.59401777	     -4.40252021	      2.04625444	    -13.63213759	     -7.46669894	     12.64204771	     10.38195684	     50.37509300	    -37.03755335	      1.32156094	     -8.88580381
      0.64000000	     23.42805933	     -0.06041674	      4.67970808	     -0.51578394	      0.83530330	      0.02594532	    -41.87458008	      5.66622634	    -18.95001651	     -9.17777690	     32.90284768	     20.25435709	     34.80486329	     -4.48231732	      2.03453358	    -13.36587002	     -8.35558713	     11.98478410	      9.48948868	     51.35298655	    -37.12957585	      1.20879364	     -8.84554346
      0.64500000	     23.44831468	     -0.10581071	      4.56924012	     -0.51033259	      0.83547831	      0.02574750	    -41.68813701	      5.44044263	    -18.82127985	    -10.63560372	     32.90387284	     20.19431575	     35.01165190	     -4.37300834	      1.93950044	    -13.17765136	     -9.51756499	     11.70830584	      8.99349993	     51.36373671	    -37.14431618	      1.14108798	     -8.81435778
      0.65000000	     23.42294369	     -0.15206436	      4.60259977	     -0.50496701	      0.83564915	      0.02527631	    -41.40320447	      5.28453767	    -18.87981999	    -12.18280642	     32.73546172	     20.19983150	     35.63515246	     -4.20460892	      1.85617884	    -12.63602492	    -10.67038919	     11.37631852	      8.12401185	     51.34903503	    -37.11789369	      1.16058948	     -8.86899393
      0.65500000	     23.48047299	     -0.12098321	      4.51237998	     -0.49945040	      0.83605049	      0.02493550	    -41.17012965	      4.97216364	    -18.91811972	    -13.83484963	     32.35147737	     20.03550155	     38.05509660	     -4.24523653	      1.87507953	    -12.25376364	    -11.62347032	     11.07186293	      7.27336016	     51.34380145	    -37.17328112	      1.04290031	     -8.87369259
      0.66000000	     23.43271856	     -0.14521170	      4.50919039	     -0.49397242	      0.83632325	      0.02451808	    -40.75146440	      4.73927818	    -18.99884977	    -15.64652182	     32.08059185	     19.98791602	     38.66686063	     -4.07295076	      1.80511763	    -11.86497297	    -12.81313852	     11.11565714	      6.76873671	     51.25867583	    -37.11733095	      1.01521242	     -8.92493969
      0.66500000	     23.44858639	     -0.10919471	      4.44929129	     -0.48847095	      0.83679879	      0.02407747	    -40.35291486	      4.39594703	    -19.10904045	    -17.55644177	     31.62713157	     19.81631010	     41.00138861	     -4.08998668	      1.83629147	    -11.43855173	    -13.75209741	     11.01745402	      6.09590609	     50.74048238	    -37.13240665	      0.91427536	     -8.93653894
